<?xml version="1.0" encoding="utf-8"?>
<!-- Generator: Adobe Illustrator 24.0.1, SVG Export Plug-In . SVG Version: 6.00 Build 0)  -->
<svg version="1.1" xmlns="http://www.w3.org/2000/svg" xmlns:xlink="http://www.w3.org/1999/xlink" x="0px" y="0px"
	 viewBox="0 0 558.7 149.9" style="enable-background:new 0 0 558.7 149.9;" xml:space="preserve">
<style type="text/css">
	.st0{fill:#3B3B3B;}
	.st1{clip-path:url(#SVGID_2_);fill:url(#SVGID_3_);}
	.st2{clip-path:url(#SVGID_5_);fill:url(#SVGID_6_);}
</style>
<g id="Capa_1">
	<path class="st0" d="M30.5,105.1c5.9,2.4,9.6,8.3,9.4,14.6c0.1,3.1-0.8,6.2-2.4,8.8c-1.7,2.6-4.1,4.6-6.9,5.8
		c-3.4,1.4-7,2.1-10.6,2h-9.2v12.7H0v-46h19.9C23.5,103,27.1,103.7,30.5,105.1 M26.6,125.6c3.3-3.2,3.3-8.4,0.1-11.7
		c0,0-0.1-0.1-0.1-0.1c-1.7-1.4-4.1-2.1-7.3-2.1h-8.7v15.9h8.7C22.5,127.7,24.9,127,26.6,125.6"/>
	<path class="st0" d="M75.6,139.2H54.3l-4.1,9.9H39.3l20.5-46h10.5l20.6,46H79.7L75.6,139.2z M72.3,131.2L65,113.6l-7.3,17.6H72.3z"
		/>
	<polygon class="st0" points="102.5,111.8 87.8,111.8 87.8,103.1 127.8,103.1 127.8,111.8 113.1,111.8 113.1,149.1 102.5,149.1 	"/>
	<path class="st0" d="M161.1,139.2h-21.3l-4.1,9.9h-10.9l20.5-46h10.5l20.5,46h-11.2L161.1,139.2z M157.7,131.2l-7.3-17.6l-7.3,17.6
		H157.7z"/>
	<path class="st0" d="M209.5,125.4h9.7V144c-2.6,1.9-5.5,3.4-8.7,4.3c-3.2,1-6.5,1.5-9.9,1.5c-4.5,0.1-8.9-1-12.9-3.1
		c-3.7-1.9-6.8-4.9-9-8.5c-4.3-7.6-4.3-16.9,0-24.5c2.2-3.6,5.3-6.5,9-8.5c4-2.1,8.5-3.1,13-3.1c3.8-0.1,7.5,0.6,11,2
		c3.2,1.3,6,3.3,8.3,5.9l-6.8,6.3c-3-3.3-7.4-5.2-11.9-5.2c-2.7-0.1-5.4,0.6-7.8,1.8c-2.2,1.2-4.1,3-5.3,5.2
		c-2.5,4.8-2.5,10.5,0,15.3c1.2,2.2,3.1,4,5.3,5.2c2.4,1.3,5,1.9,7.7,1.9c2.9,0,5.7-0.6,8.3-2L209.5,125.4z"/>
	<path class="st0" d="M235.7,146.7c-3.7-2-6.8-4.9-9-8.5c-4.3-7.5-4.3-16.8,0-24.4c2.2-3.6,5.3-6.5,9-8.5c8.1-4.1,17.7-4.1,25.8,0
		c11.4,6.1,15.7,20.3,9.7,31.7c-2.2,4.1-5.6,7.5-9.7,9.7C253.4,150.9,243.8,150.9,235.7,146.7 M256,138.9c2.2-1.2,4-3,5.1-5.2
		c2.5-4.8,2.5-10.5,0-15.2c-1.2-2.2-3-4-5.1-5.2c-4.6-2.5-10.1-2.5-14.7,0c-2.2,1.2-4,3-5.2,5.2c-2.5,4.8-2.5,10.5,0,15.2
		c1.2,2.2,3,4,5.2,5.2C245.8,141.3,251.3,141.3,256,138.9"/>
	<polygon class="st0" points="321.2,103.1 321.2,149.1 312.5,149.1 289.5,121.2 289.5,149.1 279,149.1 279,103.1 287.8,103.1 
		310.7,131 310.7,103.1 	"/>
	<rect x="329.4" y="103.1" class="st0" width="10.6" height="45.9"/>
	<path class="st0" d="M378.5,139.2h-21.3l-4.1,9.9h-10.9l20.5-46h10.5l20.6,46h-11.2L378.5,139.2z M375.1,131.2l-7.3-17.6l-7.3,17.6
		H375.1z"/>
	<path class="st0" d="M412.4,146.9c-3.7-1.9-6.8-4.9-8.9-8.5c-4.3-7.6-4.3-16.9,0-24.5c2.1-3.6,5.2-6.5,8.9-8.5
		c7.3-3.7,15.9-4.1,23.6-1c3.1,1.3,5.9,3.4,8.1,6l-6.8,6.3c-2.8-3.5-7.1-5.4-11.5-5.4c-2.7,0-5.3,0.6-7.6,1.9c-2.2,1.2-4,3-5.2,5.2
		c-2.5,4.8-2.5,10.5,0,15.2c1.2,2.2,3,4,5.2,5.2c2.3,1.3,5,1.9,7.6,1.9c4.5,0.1,8.7-2,11.5-5.4l6.8,6.3c-2.2,2.7-5,4.8-8.1,6.1
		c-3.4,1.4-7.1,2.2-10.8,2.1C420.7,149.9,416.3,148.8,412.4,146.9"/>
	<polygon class="st0" points="490.6,103.1 490.6,149.1 480,149.1 480,130.2 459.1,130.2 459.1,149.1 448.5,149.1 448.5,103.1 
		459.1,103.1 459.1,121.2 480,121.2 480,103.1 	"/>
	<rect x="498.9" y="103.1" class="st0" width="10.6" height="45.9"/>
	<path class="st0" d="M527,146.8c-3.7-1.9-6.8-4.9-8.9-8.5c-4.3-7.6-4.3-16.9,0-24.5c2.1-3.6,5.2-6.5,8.9-8.5
		c7.3-3.7,15.9-4.1,23.6-1c3.1,1.3,5.9,3.4,8.1,6l-6.8,6.3c-2.8-3.5-7.1-5.4-11.6-5.4c-2.7,0-5.3,0.6-7.6,1.9
		c-2.2,1.2-4,3.1-5.2,5.3c-2.5,4.8-2.5,10.5,0,15.2c1.2,2.2,3,4,5.2,5.2c2.3,1.3,5,1.9,7.6,1.9c4.5,0.1,8.7-1.9,11.6-5.4l6.8,6.3
		c-2.2,2.7-5,4.8-8.1,6.1c-3.4,1.4-7.1,2.2-10.8,2.1C535.3,149.9,530.9,148.8,527,146.8"/>
</g>
<g id="Layer_2">
	<g>
		<g>
			<defs>
				<path id="SVGID_1_" d="M47.8,6.9c-9.2,9.2-9.2,24.1,0,33.3L81.6,74c9.2,9.2,24.1,9.2,33.3,0c9.2-9.2,9.2-24.1,0-33.3L81,6.9
					C76.5,2.3,70.4,0,64.4,0C58.4,0,52.4,2.3,47.8,6.9"/>
			</defs>
			<clipPath id="SVGID_2_">
				<use xlink:href="#SVGID_1_"  style="overflow:visible;"/>
			</clipPath>
			
				<linearGradient id="SVGID_3_" gradientUnits="userSpaceOnUse" x1="-697.2513" y1="595.4525" x2="-696.2488" y2="595.4525" gradientTransform="matrix(116.9735 113.069 113.069 -116.9735 14275.1807 148493.6875)">
				<stop  offset="0" style="stop-color:#26AFF4"/>
				<stop  offset="2.237670e-07" style="stop-color:#26AFF4"/>
				<stop  offset="1" style="stop-color:#5175E1"/>
			</linearGradient>
			<polygon class="st1" points="79.9,-42.7 165.6,40.2 82.8,125.9 -3,43 			"/>
		</g>
		<g>
			<defs>
				<path id="SVGID_4_" d="M47.7,6.9L13.8,40.8c-9.2,9.2-9.2,24.1,0,33.3c9.2,9.2,24.1,9.2,33.3,0l33.8-33.8
					c9.2-9.2,9.2-24.1,0-33.3C76.3,2.3,70.3,0,64.3,0C58.3,0,52.2,2.3,47.7,6.9"/>
			</defs>
			<clipPath id="SVGID_5_">
				<use xlink:href="#SVGID_4_"  style="overflow:visible;"/>
			</clipPath>
			
				<linearGradient id="SVGID_6_" gradientUnits="userSpaceOnUse" x1="-697.1178" y1="592.1567" x2="-696.1153" y2="592.1567" gradientTransform="matrix(86.876 -91.7567 -91.7567 -86.876 114890.0469 -12421.8535)">
				<stop  offset="0" style="stop-color:#26AFF4"/>
				<stop  offset="2.237670e-07" style="stop-color:#26AFF4"/>
				<stop  offset="1" style="stop-color:#5175E1"/>
			</linearGradient>
			<polygon class="st2" points="-36.9,43.9 45,-42.6 131.6,39.3 49.7,125.9 			"/>
		</g>
	</g>
</g>
</svg>
