<svg id="Capa_1" data-name="Capa 1" xmlns="http://www.w3.org/2000/svg" viewBox="0 0 538.02 200.03"><defs><style>.cls-1{fill:none;}.cls-2{fill:#5bb5e6;}.cls-3{fill:#242b55;}.cls-4{fill:#fff;}</style></defs><polygon class="cls-1" points="131.08 55.86 201.66 89.62 210.12 85.48 234.06 73.77 161.31 43.54 131.08 55.86"/><path class="cls-1" d="M162.16,110.77l32.79-16L123.76,60.67a.33.33,0,0,1-.1-.06l-34.23,14L140.58,100Z" transform="translate(-1.08 -1.29)"/><polygon class="cls-1" points="157.32 126.58 157.32 126.46 157.36 115.25 130.65 101.95 83.76 78.6 83.59 126.2 83.49 154.41 83.61 154.47 83.71 126.31 157.32 126.58"/><polygon class="cls-1" points="157.26 144.27 156.94 144.43 157.09 135.2 157.29 135.1 157.32 126.58 83.71 126.31 83.61 154.47 157.09 191.06 157.26 144.27"/><path class="cls-2" d="M77.49,74.24s0,0,0-.06,0,0,0-.06a1.59,1.59,0,0,1,.06-.3,2.28,2.28,0,0,1,.1-.52,3.92,3.92,0,0,1,.16-.36,5.05,5.05,0,0,1,.25-.45,2.34,2.34,0,0,1,.25-.3,3.23,3.23,0,0,1,.37-.37,2.62,2.62,0,0,1,.34-.24,2.83,2.83,0,0,1,.28-.2l.2-.08a1.29,1.29,0,0,0,.16-.09L160.9,38.13a4,4,0,0,1,3,0L211.4,57.86l.13,0a49.6,49.6,0,0,0,.32-5A51.2,51.2,0,0,0,113.32,33,36.65,36.65,0,0,0,62,45.45l43.9.15a2.79,2.79,0,0,1,0,5.57L59.28,51A37,37,0,0,0,56.9,62.63l7.35,0a2.78,2.78,0,0,1,0,5.56l-7.14,0a36.86,36.86,0,0,0,2.74,10.49c-.11,0-.2,0-.31,0A24.36,24.36,0,0,0,37.17,93.19l17.62.07a2.78,2.78,0,0,1,0,5.56l-19.28-.07a24.79,24.79,0,0,0-.41,4.25,24.39,24.39,0,0,0,6.74,16.93l12.87,0a2.78,2.78,0,1,1,0,5.56H49.78a24.42,24.42,0,0,0,9.57,2l17.95.06v-.12Z" transform="translate(-1.08 -1.29)"/><path class="cls-2" d="M214.94,59.33l18.66,7.75A34.14,34.14,0,0,0,214.94,59.33Z" transform="translate(-1.08 -1.29)"/><path class="cls-3" d="M54.72,45.43a2.78,2.78,0,0,0,0,5.56l4.58,0A36.47,36.47,0,0,1,62,45.45Z" transform="translate(-1.08 -1.29)"/><path class="cls-3" d="M108.61,48.4a2.78,2.78,0,0,0-2.76-2.8L62,45.45A36.47,36.47,0,0,0,59.28,51l46.55.16A2.78,2.78,0,0,0,108.61,48.4Z" transform="translate(-1.08 -1.29)"/><path class="cls-3" d="M56.9,62.63l-23.24-.08a2.79,2.79,0,0,0,0,5.57l23.45.08A38.1,38.1,0,0,1,56.86,64C56.86,63.57,56.88,63.1,56.9,62.63Z" transform="translate(-1.08 -1.29)"/><path class="cls-3" d="M67,65.45a2.78,2.78,0,0,0-2.76-2.79l-7.35,0c0,.47,0,.94,0,1.41a38.1,38.1,0,0,0,.23,4.16l7.14,0A2.77,2.77,0,0,0,67,65.45Z" transform="translate(-1.08 -1.29)"/><path class="cls-3" d="M13.4,68.05l8.12,0a2.79,2.79,0,0,0,0-5.57l-8.12,0a2.79,2.79,0,0,0,0,5.57Z" transform="translate(-1.08 -1.29)"/><path class="cls-3" d="M4,93.08a2.78,2.78,0,0,0,0,5.56l31.54.11a24.34,24.34,0,0,1,1.68-5.56Z" transform="translate(-1.08 -1.29)"/><path class="cls-3" d="M57.55,96.05a2.77,2.77,0,0,0-2.76-2.79l-17.62-.07a24.34,24.34,0,0,0-1.68,5.56l19.28.07A2.78,2.78,0,0,0,57.55,96.05Z" transform="translate(-1.08 -1.29)"/><path class="cls-3" d="M3.87,119.79a2.79,2.79,0,0,0,0,5.57l45.93.16a24.56,24.56,0,0,1-8-5.59Z" transform="translate(-1.08 -1.29)"/><path class="cls-3" d="M57.46,122.76A2.78,2.78,0,0,0,54.69,120l-12.87,0a24.56,24.56,0,0,0,8,5.59h4.89A2.77,2.77,0,0,0,57.46,122.76Z" transform="translate(-1.08 -1.29)"/><path class="cls-3" d="M61.62,141.68l-8.11,0a2.78,2.78,0,0,0,0,5.56l8.11,0a2.78,2.78,0,0,0,0-5.56Z" transform="translate(-1.08 -1.29)"/><path class="cls-3" d="M237.23,127.38l9.68-4.7.17-47.85s0,0,0-.07,0,0,0-.05a2.56,2.56,0,0,0-.05-.27,2.13,2.13,0,0,0-.26-.9,3.37,3.37,0,0,0-.25-.46,2.42,2.42,0,0,0-.25-.31,3.23,3.23,0,0,0-.37-.37,3,3,0,0,0-.34-.25,2.61,2.61,0,0,0-.27-.19c-.07,0-.14,0-.2-.08a1.29,1.29,0,0,0-.16-.09l-11.26-4.68-.07,0,.18.14L214.7,59.3a2,2,0,0,1,.24,0l-.35-.15-3.06-1.27a.13.13,0,0,0,0,.06L164.06,38.25a4.07,4.07,0,0,0-3.05,0L79.78,71.33a1.19,1.19,0,0,0-.15.09,1.8,1.8,0,0,0-.21.08,2.61,2.61,0,0,0-.27.19,2.93,2.93,0,0,0-.34.24,4.31,4.31,0,0,0-.37.37,3.88,3.88,0,0,0-.26.31,2.42,2.42,0,0,0-.24.45,2.21,2.21,0,0,0-.16.35,3.21,3.21,0,0,0-.11.52c0,.11,0,.2-.06.31s0,0,0,.06,0,0,0,.06l-.19,53.22H77.3l-.11,30.08a3.31,3.31,0,0,0,1.91,2.93l81,40.32a4.45,4.45,0,0,0,.51.19l.31.11a4.31,4.31,0,0,0,.94.11,3.63,3.63,0,0,0,.93-.1c.11,0,.2-.08.3-.11a3.46,3.46,0,0,0,.54-.19l81.25-39.75a3.3,3.3,0,0,0,1.93-2.92l.1-26.4-9.8,4.76ZM123.66,60.61a.33.33,0,0,0,.1.06L195,94.73l-32.79,16L140.58,100,89.43,74.56Zm58.12,124.18-10.22,5,.81-51-13.91,6.77-.17,47-73.6-36.65v-.06l-.12-.06.11-28.21.17-47.6,46.88,23.35,26.72,13.3,0,11.21v.12h.11l0,8.46,38.82-18.87-.15,9.23-14.56,7.08Zm48.13-42.57-22.58,11-.11.29q.17,4.44,2.24,6.24t6.24-.23a29.39,29.39,0,0,0,5.84-3.65,45.61,45.61,0,0,0,5-4.91l2.26,5.84a37.28,37.28,0,0,1-6.22,6.64,39.31,39.31,0,0,1-8.5,5.6q-8.46,4.11-13.13.34c-3.11-2.51-4.23-6.77-4.13-13.17l0-1.64A39.43,39.43,0,0,1,201.73,136a28.71,28.71,0,0,1,12.81-12.5q7.64-3.7,11.63-.22c2.65,2.33,3.94,6.59,3.84,12.76Zm-18.7-55.45-8.46,4.14L132.16,57.15l30.23-12.31,72.75,30.22Z" transform="translate(-1.08 -1.29)"/><path class="cls-3" d="M214.39,132.71a10.51,10.51,0,0,0-4.78,4.79,20.78,20.78,0,0,0-2.12,7.56l.07.17L220,139.17l0-.9q.06-3.9-1.27-5.47C217.88,131.75,216.43,131.72,214.39,132.71Z" transform="translate(-1.08 -1.29)"/><polygon class="cls-3" points="157.09 191.06 83.61 154.47 83.61 154.52 157.21 191.18 157.38 144.21 157.26 144.27 157.09 191.06"/><polygon class="cls-3" points="157.41 135.04 157.44 126.58 157.32 126.58 157.29 135.1 157.41 135.04"/><path class="cls-3" d="M77.61,74.36s0,0,0-.06,0,0,0-.06,0-.2.06-.31a3.21,3.21,0,0,1,.11-.52,2.21,2.21,0,0,1,.16-.35,2.42,2.42,0,0,1,.24-.45,3.88,3.88,0,0,1,.26-.31,4.31,4.31,0,0,1,.37-.37,2.93,2.93,0,0,1,.34-.24,2.61,2.61,0,0,1,.27-.19,1.8,1.8,0,0,1,.21-.08,1.19,1.19,0,0,1,.15-.09L161,38.24a4.07,4.07,0,0,1,3.05,0L211.52,58a.13.13,0,0,1,0-.06l-.13,0L164,38.14a4,4,0,0,0-3,0L79.67,71.21a1.29,1.29,0,0,1-.16.09l-.2.08a2.83,2.83,0,0,0-.28.2,2.62,2.62,0,0,0-.34.24,3.23,3.23,0,0,0-.37.37,2.34,2.34,0,0,0-.25.3,5.05,5.05,0,0,0-.25.45,3.92,3.92,0,0,0-.16.36,2.28,2.28,0,0,0-.1.52,1.59,1.59,0,0,0-.06.3s0,0,0,.06,0,0,0,.06l-.19,53.22v.12h.12Z" transform="translate(-1.08 -1.29)"/><path class="cls-3" d="M233.78,67.22l-.18-.14-18.66-7.75a2,2,0,0,0-.24,0Z" transform="translate(-1.08 -1.29)"/><polygon class="cls-4" points="156.94 144.43 157.26 144.27 157.27 141.12 157.29 135.1 157.09 135.2 156.94 144.43"/><polygon class="cls-4" points="157.41 135.04 157.29 135.1 157.27 141.12 157.26 144.27 157.38 144.21 157.39 141.23 157.41 135.04"/><path class="cls-2" d="M285.19,128.75H264.81v15.7H289v8.46H253.79V98H289v8.49H264.81v13.81h20.38Z" transform="translate(-1.08 -1.29)"/><path class="cls-2" d="M306,112.07l.49,5.85a14.94,14.94,0,0,1,5-4.87,13.12,13.12,0,0,1,6.68-1.73q6.19,0,9.67,4t3.47,12.59v25H320.29v-25q0-4.38-1.53-6.21a5.63,5.63,0,0,0-4.58-1.83,9.61,9.61,0,0,0-4.33.93,8.28,8.28,0,0,0-3.07,2.55v29.55h-11V112.07Z" transform="translate(-1.08 -1.29)"/><path class="cls-2" d="M352.79,102.07v10h6.9v7.74h-6.9V140.6a4.78,4.78,0,0,0,1,3.4,3.53,3.53,0,0,0,2.63,1,9.54,9.54,0,0,0,1.51-.1,12,12,0,0,0,1.47-.32l.91,8a23.81,23.81,0,0,1-3.23.85,19.09,19.09,0,0,1-3.42.28q-5.7,0-8.77-3.13t-3.08-9.93V119.81h-6v-7.74h6v-10Z" transform="translate(-1.08 -1.29)"/><path class="cls-2" d="M388,121.54l-4-.11a7.36,7.36,0,0,0-4,1,6.49,6.49,0,0,0-2.41,2.87v27.59h-11V112.07h10.22l.49,6a12.9,12.9,0,0,1,3.72-5,8.26,8.26,0,0,1,5.27-1.79,8.16,8.16,0,0,1,1.53.13c.46.09.93.19,1.41.32Z" transform="translate(-1.08 -1.29)"/><path class="cls-2" d="M410.68,153.7q-9.14,0-14.27-5.6t-5.13-14.44v-1.51q0-9.16,5-15t13.7-5.81q8.24,0,12.63,5T427,129.92v5.7H402.64l-.11.23a10.93,10.93,0,0,0,2.55,6.79q2.28,2.61,6.77,2.61a22.33,22.33,0,0,0,6.28-.76,25.53,25.53,0,0,0,5.35-2.3l3,6.79a20.24,20.24,0,0,1-6.65,3.36A29.28,29.28,0,0,1,410.68,153.7ZM410,119.81a6.12,6.12,0,0,0-5.11,2.28,11.39,11.39,0,0,0-2.17,6.06l.07.19h13.44v-.83a9.54,9.54,0,0,0-1.47-5.64A5.43,5.43,0,0,0,410,119.81Z" transform="translate(-1.08 -1.29)"/><path class="cls-2" d="M431.78,132.83q0-9.66,4.19-15.59a13.58,13.58,0,0,1,11.77-5.92,11.6,11.6,0,0,1,6,1.54,13.72,13.72,0,0,1,4.46,4.42l.86-5.21h9.48v40.65q0,8-5.21,12.32t-14.53,4.36a27.56,27.56,0,0,1-6.57-.85,30.51,30.51,0,0,1-6.42-2.32L437.7,158a24.8,24.8,0,0,0,5.23,1.83,25.6,25.6,0,0,0,5.83.63q4.53,0,6.66-1.89t2.14-5.89V149a12.21,12.21,0,0,1-4.27,3.51,12.49,12.49,0,0,1-5.62,1.21q-7.51,0-11.7-5.51t-4.19-14.57Zm11,.79a16.86,16.86,0,0,0,1.79,8.44,6.26,6.26,0,0,0,5.87,3.07,9.1,9.1,0,0,0,4.29-.92,7.14,7.14,0,0,0,2.81-2.7v-17.7a7.57,7.57,0,0,0-2.81-2.91,8.28,8.28,0,0,0-4.21-1,6.18,6.18,0,0,0-5.89,3.59,20.47,20.47,0,0,0-1.85,9.36Z" transform="translate(-1.08 -1.29)"/><path class="cls-2" d="M475.33,132.11q0-9.14,5.1-15t14.11-5.83q9.06,0,14.19,5.81t5.14,15v.79q0,9.21-5.12,15t-14.13,5.79q-9.06,0-14.17-5.79t-5.12-15Zm11,.79a17.75,17.75,0,0,0,2,9,6.78,6.78,0,0,0,6.34,3.38,6.71,6.71,0,0,0,6.24-3.4,17.69,17.69,0,0,0,2-8.95v-.79a17.41,17.41,0,0,0-2-8.87,6.75,6.75,0,0,0-6.3-3.43,6.68,6.68,0,0,0-6.24,3.45,17.62,17.62,0,0,0-2,8.85Z" transform="translate(-1.08 -1.29)"/><path class="cls-3" d="M529.92,122.26a9.18,9.18,0,1,1,9.19-9.18A9.18,9.18,0,0,1,529.92,122.26Zm7.77-9.18a7.77,7.77,0,1,0-7.76,7.77A7.76,7.76,0,0,0,537.69,113.08Z" transform="translate(-1.08 -1.29)"/><path class="cls-3" d="M532.27,114.34l1.19,3h-1.33c-.07,0-.1,0-.12-.08l-1.08-2.69s0-.06-.07-.06h-2.35v2.82H527.1v-8.47h4.23a2.85,2.85,0,0,1,1.81.63,2.68,2.68,0,0,1,.85,1.21,2.87,2.87,0,0,1,.16,1.3,2.75,2.75,0,0,1-.92,1.8A2.71,2.71,0,0,1,532.27,114.34Zm-3.76-1.26h2.69l.4,0a1.27,1.27,0,0,0,.93-.61,1.4,1.4,0,0,0,.19-1,1.27,1.27,0,0,0-.51-.87,1.4,1.4,0,0,0-.92-.3h-2.78Z" transform="translate(-1.08 -1.29)"/><path class="cls-3" d="M328,186.06a3.13,3.13,0,0,0-1.21-2.51,12.2,12.2,0,0,0-4.12-1.87,13.67,13.67,0,0,1-4.82-2.17A4.25,4.25,0,0,1,316.2,176a4.55,4.55,0,0,1,1.85-3.74,7.41,7.41,0,0,1,4.72-1.46,7,7,0,0,1,4.86,1.65,5.24,5.24,0,0,1,1.78,4.2l0,.08h-1.53a4.2,4.2,0,0,0-1.42-3.25,5.25,5.25,0,0,0-3.67-1.29,5.52,5.52,0,0,0-3.63,1.09,3.39,3.39,0,0,0-1.31,2.69,3.09,3.09,0,0,0,1.19,2.49,12.24,12.24,0,0,0,4.2,1.81A13.75,13.75,0,0,1,328,182.5a4.32,4.32,0,0,1,1.64,3.54,4.4,4.4,0,0,1-1.92,3.72,8,8,0,0,1-4.85,1.41,8.84,8.84,0,0,1-5.11-1.49,4.8,4.8,0,0,1-2.11-4.35l0-.08h1.51a3.81,3.81,0,0,0,1.73,3.42,7.07,7.07,0,0,0,3.95,1.12,6.09,6.09,0,0,0,3.7-1A3.19,3.19,0,0,0,328,186.06Z" transform="translate(-1.08 -1.29)"/><path class="cls-3" d="M335.09,171.94h-1.62v-2.29h1.62Zm0,18.94h-1.62V176.15h1.62Z" transform="translate(-1.08 -1.29)"/><path class="cls-3" d="M345.19,191.17a5.88,5.88,0,0,1-4.64-2,7.57,7.57,0,0,1-1.79-5.2v-.74a7.73,7.73,0,0,1,1.81-5.26,5.69,5.69,0,0,1,4.47-2.07,5.18,5.18,0,0,1,4.15,1.72,7,7,0,0,1,1.46,4.64v1.27H340.4V184a6.65,6.65,0,0,0,1.27,4.18,4.18,4.18,0,0,0,3.52,1.66,6.67,6.67,0,0,0,2.48-.44,5.36,5.36,0,0,0,1.88-1.19l.69,1.12a6.21,6.21,0,0,1-2,1.35A7.65,7.65,0,0,1,345.19,191.17Zm-.15-13.9a4,4,0,0,0-3.09,1.35,5.84,5.84,0,0,0-1.42,3.42l.05.08H349v-.34a5,5,0,0,0-1-3.24A3.6,3.6,0,0,0,345,177.27Z" transform="translate(-1.08 -1.29)"/><path class="cls-3" d="M355.33,176.15l.15,2.43a5.18,5.18,0,0,1,1.89-2,5.31,5.31,0,0,1,2.79-.71,4.7,4.7,0,0,1,2.82.81,4.47,4.47,0,0,1,1.62,2.47,5.74,5.74,0,0,1,1.9-2.41,5,5,0,0,1,3-.87,4.45,4.45,0,0,1,3.64,1.57,7.59,7.59,0,0,1,1.28,4.84v8.59h-1.63v-8.61a5.91,5.91,0,0,0-1-3.85,3.32,3.32,0,0,0-2.67-1.12,3.66,3.66,0,0,0-2.88,1.14,5.45,5.45,0,0,0-1.29,2.93v.3c0,.1,0,.22,0,.38v8.83h-1.65v-8.61a5.92,5.92,0,0,0-1-3.82,3.31,3.31,0,0,0-2.68-1.15,4.11,4.11,0,0,0-2.73.86,4.64,4.64,0,0,0-1.42,2.34v10.38h-1.63V176.15Z" transform="translate(-1.08 -1.29)"/><path class="cls-3" d="M390.5,183.93A8.48,8.48,0,0,1,389,189.2a4.92,4.92,0,0,1-4.13,2,6,6,0,0,1-2.7-.59,4.91,4.91,0,0,1-1.9-1.66v7.63h-1.63v-20.4h1.25l.3,2.31a5.27,5.27,0,0,1,1.91-1.9,5.39,5.39,0,0,1,2.75-.68A4.81,4.81,0,0,1,389,178a9.56,9.56,0,0,1,1.49,5.64Zm-1.63-.29a8.47,8.47,0,0,0-1.11-4.57,3.64,3.64,0,0,0-3.27-1.77,4.34,4.34,0,0,0-2.65.77,5,5,0,0,0-1.56,2v7.13a4.54,4.54,0,0,0,1.62,1.89,4.66,4.66,0,0,0,2.62.68,3.69,3.69,0,0,0,3.24-1.6,7.36,7.36,0,0,0,1.11-4.26Z" transform="translate(-1.08 -1.29)"/><path class="cls-3" d="M400.89,177.56l-1.16-.08a3.67,3.67,0,0,0-2.52.86,4.76,4.76,0,0,0-1.41,2.38v10.16h-1.63V176.15h1.43l.2,2.46v.16a5.32,5.32,0,0,1,1.72-2.13,4.35,4.35,0,0,1,2.56-.76,3.45,3.45,0,0,1,.57.05l.45.1Z" transform="translate(-1.08 -1.29)"/><path class="cls-3" d="M409,191.17a5.87,5.87,0,0,1-4.64-2,7.57,7.57,0,0,1-1.79-5.2v-.74A7.68,7.68,0,0,1,404.4,178a5.69,5.69,0,0,1,4.47-2.07A5.14,5.14,0,0,1,413,177.6a6.92,6.92,0,0,1,1.47,4.64v1.27H404.23V184a6.65,6.65,0,0,0,1.27,4.18,4.18,4.18,0,0,0,3.52,1.66,6.67,6.67,0,0,0,2.48-.44,5.31,5.31,0,0,0,1.87-1.19l.7,1.12a6.15,6.15,0,0,1-2,1.35A7.6,7.6,0,0,1,409,191.17Zm-.15-13.9a4,4,0,0,0-3.09,1.35,5.84,5.84,0,0,0-1.42,3.42l0,.08h8.44v-.34a5,5,0,0,0-1-3.24A3.6,3.6,0,0,0,408.87,177.27Z" transform="translate(-1.08 -1.29)"/><path class="cls-3" d="M430.14,191.17a5.9,5.9,0,0,1-4.64-2,7.56,7.56,0,0,1-1.78-5.2v-.74a7.72,7.72,0,0,1,1.8-5.26,5.72,5.72,0,0,1,4.47-2.07,5.18,5.18,0,0,1,4.15,1.72,6.92,6.92,0,0,1,1.46,4.64v1.27H425.35V184a6.65,6.65,0,0,0,1.28,4.18,4.16,4.16,0,0,0,3.51,1.66,6.63,6.63,0,0,0,2.48-.44,5.27,5.27,0,0,0,1.88-1.19l.69,1.12a6,6,0,0,1-2,1.35A7.65,7.65,0,0,1,430.14,191.17Zm-.15-13.9a4,4,0,0,0-3.09,1.35,5.83,5.83,0,0,0-1.41,3.42l0,.08H434v-.34a5,5,0,0,0-1-3.24A3.59,3.59,0,0,0,430,177.27Z" transform="translate(-1.08 -1.29)"/><path class="cls-3" d="M440.34,176.15l.15,2.56a5.47,5.47,0,0,1,1.92-2.09,5.34,5.34,0,0,1,2.84-.74,4.52,4.52,0,0,1,3.65,1.47,6.86,6.86,0,0,1,1.25,4.56v9h-1.63v-8.95a5.34,5.34,0,0,0-.94-3.58,3.45,3.45,0,0,0-2.69-1,4.31,4.31,0,0,0-2.81.86,4.72,4.72,0,0,0-1.55,2.3v10.42H438.9V176.15Z" transform="translate(-1.08 -1.29)"/><path class="cls-3" d="M463,190.88H461.4V169.65H463Z" transform="translate(-1.08 -1.29)"/><path class="cls-3" d="M470.34,170.19h2l0,.08L469,173.81h-1.45Zm-1,20.69h-1.63V176.15h1.63Z" transform="translate(-1.08 -1.29)"/><path class="cls-3" d="M475.17,176.15l.15,2.56a5.47,5.47,0,0,1,1.92-2.09,5.35,5.35,0,0,1,2.85-.74,4.53,4.53,0,0,1,3.65,1.47,6.92,6.92,0,0,1,1.25,4.56v9h-1.64v-8.95a5.34,5.34,0,0,0-.94-3.58,3.44,3.44,0,0,0-2.69-1,4.31,4.31,0,0,0-2.81.86,4.79,4.79,0,0,0-1.55,2.3v10.42h-1.63V176.15Z" transform="translate(-1.08 -1.29)"/><path class="cls-3" d="M494.84,191.17a5.9,5.9,0,0,1-4.64-2,7.56,7.56,0,0,1-1.78-5.2v-.74a7.72,7.72,0,0,1,1.8-5.26,5.72,5.72,0,0,1,4.47-2.07,5.18,5.18,0,0,1,4.15,1.72,6.92,6.92,0,0,1,1.46,4.64v1.27H490.05V184a6.65,6.65,0,0,0,1.28,4.18,4.16,4.16,0,0,0,3.51,1.66,6.63,6.63,0,0,0,2.48-.44,5.36,5.36,0,0,0,1.88-1.19l.69,1.12a6,6,0,0,1-2,1.35A7.65,7.65,0,0,1,494.84,191.17Zm-.15-13.9a4,4,0,0,0-3.09,1.35,5.83,5.83,0,0,0-1.41,3.42l0,.08h8.44v-.34a5,5,0,0,0-1-3.24A3.59,3.59,0,0,0,494.69,177.27Z" transform="translate(-1.08 -1.29)"/><path class="cls-3" d="M512.92,190.88c-.1-.51-.17-1-.22-1.33a8.5,8.5,0,0,1-.08-1.14,6.12,6.12,0,0,1-2.14,2,6.26,6.26,0,0,1-3.15.78A4.61,4.61,0,0,1,504,190a4.16,4.16,0,0,1-1.19-3.12,3.75,3.75,0,0,1,1.73-3.2,7.57,7.57,0,0,1,4.49-1.23h3.62v-1.82a3.15,3.15,0,0,0-1-2.48,4.08,4.08,0,0,0-2.82-.9,4.21,4.21,0,0,0-2.71.82,2.52,2.52,0,0,0-1,2h-1.51l0-.08a3.47,3.47,0,0,1,1.42-2.92,6.74,6.74,0,0,1,7.82,0,4.39,4.39,0,0,1,1.47,3.55v7.25a12.5,12.5,0,0,0,.09,1.51,10.34,10.34,0,0,0,.29,1.45Zm-5.42-1.15a5.89,5.89,0,0,0,3.26-.89,4.51,4.51,0,0,0,1.86-2.3v-2.82H509a5.4,5.4,0,0,0-3.28.95,2.75,2.75,0,0,0-1.3,2.28,2.6,2.6,0,0,0,.83,2A3.19,3.19,0,0,0,507.5,189.73Z" transform="translate(-1.08 -1.29)"/></svg>